<?xml version="1.0" encoding="utf-8"?>
+6
<svg 
    id="Layer_5" data-name="Layer 5" xmlns="http://www.w3.org/2000/svg" xmlns:xlink="http://www.w3.org/1999/xlink" 
    viewBox="0 0 40 40">
    <defs>
        <linearGradient 
            id="linear-gradient" 
            x1="15.15" 
            y1="36.5" 
            x2="15.15" 
            y2="3.5"
            gradientUnits="userSpaceOnUse">
            <stop offset="0" stop-color="#004682"/><stop offset="1" stop-color="#0277bd"/>
        </linearGradient>
        <linearGradient 
            id="linear-gradient-2" 
            x1="6.9"
            y1="20.88" 
            x2="32.9" 
            y2="20.88" 
            gradientUnits="userSpaceOnUse">
            <stop offset="0" stop-color="#0097a7"/><stop offset="1" stop-color="#0277bd"/>
        </linearGradient>
        <linearGradient 
        id="linear-gradient-3" 
        x1="26.83" 
        y1="21.69" 
        x2="14.92" 
        y2="14.81" 
        gradientUnits="userSpaceOnUse">
            <stop offset="0" stop-color="#00796b"/><stop offset="1" stop-color="#0097a7"/>
        </linearGradient>
    </defs>
	<path d="M26.4,31.25a13,13,0,1,1,0-22.5l3-5.19A19,19,0,1,0,19.9,39a18.84,18.84,0,0,0,9.49-2.56Z" fill="url(#linear-gradient)"/>
    <path d="M26.4,8.75l-2.5,4.33A8,8,0,1,1,11.9,20h-5A13,13,0,1,0,26.4,8.75Z" fill="url(#linear-gradient-2)"/>
    <path d="M19.9,16a4,4,0,0,1,2,7.45l2,3.47A8,8,0,1,0,11.9,20h4A4,4,0,0,1,19.9,16Z" fill="url(#linear-gradient-3)"/>
</svg>

